<svg xmlns="http://www.w3.org/2000/svg" width="32" height="32" viewBox="0 0 56 56"><path fill="white" fill-rule="evenodd" d="M18.724 47.628c18.868 0 29.188-15.632 29.188-29.188c0-.444 0-.886-.03-1.326A20.872 20.872 0 0 0 53 11.804a20.476 20.476 0 0 1-5.892 1.614a10.294 10.294 0 0 0 4.51-5.674a20.558 20.558 0 0 1-6.514 2.49a10.268 10.268 0 0 0-17.482 9.356A29.124 29.124 0 0 1 6.48 8.872a10.266 10.266 0 0 0 3.176 13.694A10.182 10.182 0 0 1 5 21.282v.13a10.262 10.262 0 0 0 8.23 10.056c-1.51.412-3.095.472-4.632.176a10.27 10.27 0 0 0 9.584 7.124A20.584 20.584 0 0 1 3 43.02a29.042 29.042 0 0 0 15.724 4.6"/></svg>